# xmcd
#
# Track frame offsets:
#	150
#	17067
#	27925
#	39495
#	53527
#	65522
#	81717
#	96330
#	108525
#	123320
#	132690
#	144277
#	155800
#	172415
#	186677
#	199015
#	216672
#	227432
#	241917
#	255792
#	264740
#	284400
#	297307
#	315095
#
# Disc length: 4508 seconds
#
# Revision: 0
# Processed by: cddbd v1.5.1PL0 Copyright (c) Steve Scherf et al.
# Submitted via: dBpowerAMP V4.0
#
DISCID=71119a18
DTITLE=Various Artist - Essential Bluegrass
DYEAR=1900
DGENRE=Bluegrass
TTITLE0=Shady Grove                   Ricky Skaggs
TTITLE1=Roll Muddy River                  Paul Brewster
TTITLE2=Lonessome Hearted Blues        Blue Highway
TTITLE3=You Don,t Know My Mind              Larry Cordle& Lonesome Standard time
TTITLE4=Freeborn Man                               Glen Bonham
TTITLE5=How Many Moons                              The Whites
TTITLE6=One Way Track                                 Ricky Skaggs
TTITLE7=Born With A Hammer in My Hand           Blue Highway
TTITLE8=Drink Up and Go Home                               Larry Cordle&Lonesome Standard Time
TTITLE9=Fox On The Run                                        Glen Bonham
TTITLE10=Always Coming Home                                     The Whites
TTITLE11=Rollin, In My Sweet Babys Arms                         Ricky Scaggs
TTITLE12=Man Of Constant Sorrow                                     Blue Highway
TTITLE13=Ocean Of Diamonds          Larry Crodle&Lonesome Standard time
TTITLE14=Love O Love                                                       Glen Bonham
TTITLE15=Fair Tender Ladies                               The Whites
TTITLE16=Little Maggie                                             Ricky Scaggs
TTITLE17=Don,t Come Out Of The Hole                  Blue Highway
TTITLE18=Sophronie                               Larry Crodle&Lonesome Standard Time
TTITLE19=Wondewr How The Old Folks Are At Home          Glen Bonham
TTITLE20=Walls Of Time                                            Ricky Scaggs
TTITLE21=Kentucky Waltz                                          Paul Brewster
TTITLE22=Georgia Camp Meeting                   Randy Howard &Bela Fleck
TTITLE23=John Hardy                                             Randy Howard &Bela Fleck
EXTD=
EXTT0=
EXTT1=
EXTT2=
EXTT3=
EXTT4=
EXTT5=
EXTT6=
EXTT7=
EXTT8=
EXTT9=
EXTT10=
EXTT11=
EXTT12=
EXTT13=
EXTT14=
EXTT15=
EXTT16=
EXTT17=
EXTT18=
EXTT19=
EXTT20=
EXTT21=
EXTT22=
EXTT23=
PLAYORDER=
